<svg width="24" height="25" viewBox="0 0 24 25" fill="none" xmlns="http://www.w3.org/2000/svg">
<path d="M7.98485 1.13867L7.18798 2.20367L7.98485 3.26858L8.78313 2.20358L7.98485 1.13867ZM17.5898 1.49469L16.5439 2.88922L17.5898 4.28516L18.6342 2.88922L17.5898 1.49469ZM11.4829 2.36188L10.4385 3.75641L11.4829 5.15094L12.5288 3.75641L11.4829 2.36188ZM2.53263 2.51998L1.73576 3.58489L2.53263 4.64989L3.33101 3.58489L2.53273 2.51998H2.53263ZM20.8667 3.6845L20.2294 5.06295L18.8496 5.70017L20.2295 6.36373L20.8667 7.7158L21.5024 6.33734L22.8822 5.70017L21.5287 5.063L20.8667 3.68459V3.6845ZM6.7661 4.30419L5.96627 6.03706L4.2334 6.83689L5.96637 7.67033L6.76615 9.36955L7.56443 7.63667L9.2974 6.83684L7.59818 6.03706L6.76615 4.30409L6.7661 4.30419ZM16.5439 4.73628L15.498 6.13081L16.5439 7.52675L17.5883 6.13081L16.5439 4.73628ZM11.849 7.69531L10.9819 8.85256L11.849 10.0112L12.7162 8.85247L11.849 7.69531ZM16.6787 9.15139L16.0224 10.5752L14.5986 11.2315L16.0224 11.9155L16.6787 13.313L17.3364 11.8892L18.7602 11.2315L17.3642 10.5752L16.6786 9.15139H16.6787ZM4.00338 9.47797L3.2051 10.5416L4.00338 11.6065L4.80026 10.5415L4.00338 9.47797ZM8.41549 10.7466L7.61862 11.8116L8.41549 12.8765L9.21387 11.8116L8.41559 10.7466H8.41549ZM11.8213 11.8745C11.4616 11.8797 11.1512 12.0777 10.8047 12.3447C8.64682 14.0089 5.91457 16.424 5.88143 17.7734C5.49532 17.8194 5.15187 18.0202 5.15187 18.374C5.15187 18.9018 5.87299 19.0911 6.39991 18.9483C6.39316 18.9815 6.38974 19.0154 6.3897 19.0493C6.3897 19.8029 7.86157 19.8675 8.13579 19.2587C9.75766 19.6923 11.7469 19.7652 13.5645 19.5473C13.6748 20.2481 15.1562 20.2586 15.3311 19.5956C15.8115 19.9482 16.6863 19.9689 17.2164 19.6601C17.7168 19.9775 18.7355 19.8215 18.7355 19.2001C18.7355 19.1081 18.7137 19.0267 18.6739 18.9555C18.9486 18.8365 19.1456 18.6279 19.1456 18.3285C19.1456 17.6567 18.1545 17.4508 17.5182 17.6913C17.3055 16.2301 14.7197 13.7185 12.7897 12.2684C12.4103 11.9834 12.1012 11.8704 11.8214 11.8744L11.8213 11.8745ZM3.59623 17.1435C3.09232 17.1446 2.58841 17.3788 2.58841 17.8423C2.58841 18.7692 4.60404 18.7517 4.60404 17.8423C4.60404 17.3746 4.09999 17.1425 3.59623 17.1435V17.1435ZM21.8979 17.7544C21.4504 17.7564 21.0029 17.9614 21.0029 18.3652C21.0029 19.1963 22.7929 19.1887 22.7929 18.3652C22.7929 17.9535 22.3454 17.7524 21.8979 17.7544ZM1.80026 18.4913C1.35274 18.4921 0.905273 18.6991 0.905273 19.1108C0.905273 19.9344 2.69529 19.9187 2.69529 19.1108C2.69529 18.6954 2.24777 18.4903 1.80026 18.4913ZM21.0996 19.5928C20.5957 19.5938 20.0918 19.8281 20.0918 20.2915C20.0918 21.2185 22.1059 21.2009 22.1059 20.2915C22.1059 19.8237 21.6034 19.5917 21.0995 19.5927L21.0996 19.5928ZM8.26315 19.9018C7.9819 19.9025 7.70093 19.9846 7.53077 20.1479C7.00418 19.919 6.13038 20.097 6.13038 20.6724C6.13038 21.343 7.31712 21.4557 7.75788 21.0386C8.28448 21.2636 9.15827 21.0859 9.15827 20.5215C9.15827 20.106 8.71076 19.9009 8.26324 19.9018H8.26315ZM12.3516 19.9766C11.9041 19.9785 11.4566 20.1835 11.4566 20.5873C11.4566 21.4183 13.2466 21.4109 13.2466 20.5873C13.2466 20.1757 12.7991 19.9746 12.3516 19.9766ZM3.35159 20.416C2.90407 20.417 2.45655 20.6239 2.45655 21.0357C2.45655 21.8591 4.24662 21.8434 4.24662 21.0357C4.24662 20.6202 3.7991 20.4151 3.35159 20.416ZM17.3437 21.0342C16.8962 21.0361 16.4487 21.2426 16.4487 21.6465C16.4487 22.1093 17.0041 22.3123 17.4961 22.2588C17.4625 22.3316 17.4448 22.4128 17.4448 22.502C17.4448 23.384 19.1569 23.4639 19.4956 22.7612C19.979 22.8002 20.5092 22.5943 20.5092 22.146C20.5092 21.4562 19.253 21.3547 18.8452 21.815C18.6424 21.7724 18.4203 21.77 18.2139 21.8061C18.2301 21.7567 18.2388 21.704 18.2388 21.6465C18.2388 21.2348 17.7913 21.0323 17.3438 21.0342H17.3437ZM10.27 21.1983C9.75682 21.2005 9.24462 21.4369 9.24462 21.8999C9.24462 22.8529 11.2968 22.8442 11.2968 21.8999C11.2968 21.4279 10.7831 21.196 10.27 21.1983L10.27 21.1983ZM14.9854 22.0273C14.3971 22.0286 13.8091 22.302 13.8091 22.8433C13.8091 23.9256 16.1616 23.905 16.1616 22.8433C16.1616 22.2972 15.5736 22.0261 14.9854 22.0273H14.9854ZM7.81348 22.3423C7.30029 22.3445 6.78659 22.5808 6.78659 23.0439C6.78659 23.9968 8.83887 23.9882 8.83887 23.0439C8.83887 22.5718 8.32666 22.34 7.81348 22.3423V22.3423Z" fill="black"/>
</svg>
