<svg width="24" height="25" viewBox="0 0 24 25" fill="none" xmlns="http://www.w3.org/2000/svg">
<path d="M5 22.5001C3.68 22.5001 3.15 20.1401 3.04 19.2001C2.92158 18.2875 3.03153 17.3598 3.36 16.5001C3.50437 16.091 3.75269 15.7266 4.08055 15.4426C4.40842 15.1585 4.80454 14.9647 5.23 14.8801C6.4 14.6801 7.23 15.3801 8.29 15.6201C8.48912 15.684 8.7014 15.6952 8.90614 15.6526C9.11088 15.6101 9.30109 15.5152 9.45822 15.3772C9.61535 15.2392 9.73404 15.0628 9.8027 14.8653C9.87136 14.6678 9.88766 14.4558 9.85 14.2501C9.41 12.5301 6.28 12.5001 5 12.5001C5 10.6401 7.04 10.4001 8.5 10.5401C9.36614 10.6238 10.219 10.8118 11.04 11.1001C11.54 11.2701 12.12 11.7001 12.67 11.6601C13.5 11.5901 13.67 10.7301 13.31 10.1001C12.44 8.62011 9.97 8.50011 8.5 8.50011C8.5 6.50011 10.23 6.12011 11.89 6.42011C12.7471 6.58868 13.5825 6.8537 14.38 7.21011C14.89 7.43011 15.5 7.85011 16.06 7.66011C17.5 7.22011 16 5.68011 15.36 5.31011C14.9108 5.06224 14.4343 4.86759 13.94 4.73011C13.4 4.57011 12.74 4.63011 13.23 4.00011C13.9962 3.32412 14.9468 2.89234 15.96 2.76011C17.85 2.32011 20.46 2.24011 20.92 4.62011C21.0733 5.87666 20.7718 7.14657 20.07 8.20011C18.207 11.3867 15.9006 14.2925 13.22 16.8301C11.8002 18.2856 10.2615 19.6202 8.62 20.8201C7.62 21.5401 6.3 22.5001 5 22.5001Z" fill="black"/>
</svg>
