<svg width="24" height="25" viewBox="0 0 24 25" fill="none" xmlns="http://www.w3.org/2000/svg">
<path d="M19.9402 9.87668C19.3862 8.57561 18.5213 7.43042 17.4214 6.54165C16.3215 5.65287 15.0202 5.04769 13.6318 4.77921L14.886 2.77254L13.614 1.97754L11.9591 4.62541C10.2734 4.63323 8.62685 5.13475 7.223 6.06801C5.81915 7.00126 4.71948 8.32535 4.05985 9.87668C3.17628 9.89348 2.33457 10.2563 1.71565 10.8871C1.09673 11.5179 0.75 12.3663 0.75 13.25C0.75 14.1338 1.09673 14.9822 1.71565 15.613C2.33457 16.2438 3.17628 16.6066 4.05985 16.6234C4.72229 18.1811 5.82828 19.5096 7.24012 20.4434C8.65196 21.3772 10.3073 21.875 12 21.875C13.6927 21.875 15.348 21.3772 16.7599 20.4434C18.1717 19.5096 19.2777 18.1811 19.9402 16.6234C20.8237 16.6066 21.6654 16.2438 22.2844 15.613C22.9033 14.9822 23.25 14.1338 23.25 13.25C23.25 12.3663 22.9033 11.5179 22.2844 10.8871C21.6654 10.2563 20.8237 9.89348 19.9402 9.87668ZM21.2129 14.563C20.8699 14.9139 20.4023 15.1153 19.9117 15.1237L18.9402 15.1421L18.5599 16.0362C18.0127 17.3233 17.099 18.4209 15.9326 19.1925C14.7662 19.964 13.3985 20.3754 12 20.3754C10.6015 20.3754 9.23389 19.964 8.06747 19.1925C6.90104 18.4209 5.98735 17.3233 5.44017 16.0362L5.05983 15.1421L4.08835 15.1237C3.5975 15.1145 3.12986 14.9131 2.78598 14.5627C2.4421 14.2123 2.24944 13.741 2.24944 13.25C2.24944 12.7591 2.4421 12.2878 2.78598 11.9374C3.12986 11.587 3.5975 11.3856 4.08835 11.3764L5.05983 11.3579L5.44017 10.4638C5.98737 9.17683 6.90107 8.07921 8.06749 7.30766C9.23391 6.53612 10.6015 6.12473 12 6.12473C13.3985 6.12473 14.7661 6.53612 15.9326 7.30766C17.099 8.07921 18.0127 9.17683 18.5599 10.4638L18.9402 11.3579L19.9117 11.3764C20.2778 11.3833 20.6338 11.4974 20.9358 11.7044C21.2378 11.9115 21.4725 12.2025 21.611 12.5415C21.7494 12.8805 21.7855 13.2526 21.7147 13.6119C21.644 13.9711 21.4695 14.3018 21.2129 14.563Z" fill="black"/>
<path d="M7.875 11.375H9.75V13.25H7.875V11.375ZM14.25 11.375H16.125V13.25H14.25V11.375ZM12 18.5C12.4925 18.5 12.9801 18.403 13.4351 18.2145C13.89 18.0261 14.3034 17.7499 14.6517 17.4017C14.9999 17.0534 15.2761 16.64 15.4645 16.1851C15.653 15.7301 15.75 15.2425 15.75 14.75H8.25C8.25 15.2425 8.347 15.7301 8.53545 16.1851C8.72391 16.64 9.00013 17.0534 9.34835 17.4017C10.0516 18.1049 11.0054 18.5 12 18.5Z" fill="black"/>
</svg>
