<svg width="24" height="25" viewBox="0 0 24 25" fill="none" xmlns="http://www.w3.org/2000/svg">
<path d="M13.667 16.5H10.333V14.167H8V10.833H10.333V8.5H13.667V10.833H16V14.167H13.667V16.5Z" stroke="black" stroke-width="1.5" stroke-linecap="round" stroke-linejoin="round"/>
<path d="M5 18.5L3.13 5.413C3.09442 5.16388 3.15446 4.91053 3.29805 4.70387C3.44163 4.49721 3.65812 4.35256 3.904 4.299L11.566 2.596C11.8518 2.53245 12.1482 2.53245 12.434 2.596L20.096 4.3C20.606 4.413 20.944 4.896 20.87 5.414L19 18.5C18.93 18.995 18.5 22 12 22C5.5 22 5.07 18.995 5 18.5Z" stroke="black" stroke-width="1.5" stroke-linecap="round" stroke-linejoin="round"/>
</svg>
