<svg width="24" height="25" viewBox="0 0 24 25" fill="none" xmlns="http://www.w3.org/2000/svg">
<path d="M2.57146 16.7856C3.51775 16.7856 4.28575 15.6336 4.28575 14.2142C4.28575 12.7948 3.51775 11.6428 2.57146 11.6428C1.62518 11.6428 0.857178 12.7948 0.857178 14.2142C0.857178 15.6336 1.62518 16.7856 2.57146 16.7856ZM7.71432 9.07132C8.66061 9.07132 9.42861 7.91932 9.42861 6.4999C9.42861 5.08047 8.66061 3.92847 7.71432 3.92847C6.76803 3.92847 6.00003 5.08047 6.00003 6.4999C6.00003 7.91932 6.76803 9.07132 7.71432 9.07132ZM16.2857 9.07132C17.232 9.07132 18 7.91932 18 6.4999C18 5.08047 17.232 3.92847 16.2857 3.92847C15.3395 3.92847 14.5715 5.08047 14.5715 6.4999C14.5715 7.91932 15.3395 9.07132 16.2857 9.07132ZM21.4286 16.7856C22.3749 16.7856 23.1429 15.6336 23.1429 14.2142C23.1429 12.7948 22.3749 11.6428 21.4286 11.6428C20.4823 11.6428 19.7143 12.7948 19.7143 14.2142C19.7143 15.6336 20.4823 16.7856 21.4286 16.7856ZM17.1429 17.6428C17.1429 20.0085 14.3657 21.0713 12 21.0713C9.63432 21.0713 6.85718 20.0085 6.85718 17.6428C6.85718 15.277 8.57146 11.6428 12 11.6428C15.4286 11.6428 17.1429 15.277 17.1429 17.6428Z" stroke="black" stroke-linecap="round" stroke-linejoin="round"/>
</svg>
