<svg width="24" height="25" viewBox="0 0 24 25" fill="none" xmlns="http://www.w3.org/2000/svg">
<path d="M7 7.5C7.13261 7.5 7.25979 7.44732 7.35355 7.35355C7.44732 7.25979 7.5 7.13261 7.5 7C7.5 6.86739 7.44732 6.74021 7.35355 6.64645C7.25979 6.55268 7.13261 6.5 7 6.5C6.86739 6.5 6.74021 6.55268 6.64645 6.64645C6.55268 6.74021 6.5 6.86739 6.5 7C6.5 7.13261 6.55268 7.25979 6.64645 7.35355C6.74021 7.44732 6.86739 7.5 7 7.5Z" fill="black"/>
<path fill-rule="evenodd" clip-rule="evenodd" d="M7.54304 3.50004C8.17304 2.87004 9.25004 3.31604 9.25004 4.20704V5.00004H10.043C10.934 5.00004 11.38 6.07704 10.75 6.70704L9.85354 7.60354C9.84751 7.60968 9.84134 7.61568 9.83504 7.62154L11.563 10.545C11.7675 10.8911 12.0715 11.1675 12.4354 11.3382C12.7993 11.5089 13.2062 11.566 13.603 11.502L19.893 10.4885C20.708 10.357 21.263 11.293 20.757 11.9455C20.272 12.571 20.0275 13.3705 19.851 14.2455C19.192 17.51 16.427 20.026 13 20.44V21.5H14.25V22.5H9.50004V21.5H12V20.5C9.29304 20.5 6.89504 19.1965 5.44654 17.196C4.28454 15.591 4.47354 13.5285 4.94354 11.8125L5.19104 10.91C5.31694 10.4508 5.34773 9.97063 5.28154 9.49904L5.25004 9.50004H3.95704C3.06604 9.50004 2.62004 8.42304 3.25004 7.79304L7.54304 3.50004ZM10.043 6.00004L9.31004 6.73304L8.94504 6.11654C8.8985 6.03768 8.84724 5.96171 8.79154 5.88904C8.92904 5.96004 9.08454 6.00004 9.25004 6.00004H10.043ZM8.25004 5.00004C8.25004 5.16704 8.29104 5.32504 8.36354 5.46304C8.08462 5.25115 7.76053 5.10656 7.41654 5.04054L8.25004 4.20704V5.00004ZM3.95704 8.50004L4.75454 7.70304C4.77454 7.80704 4.80254 7.91104 4.83854 8.01504L5.00554 8.50004H3.95704ZM5.78404 7.68904C5.68198 7.39087 5.69407 7.06545 5.81795 6.77567C5.94184 6.48589 6.16873 6.25232 6.45479 6.12007C6.74085 5.98783 7.06578 5.9663 7.36679 6.05966C7.66779 6.15302 7.92351 6.35463 8.08454 6.62554L10.7025 11.054C11.0093 11.5729 11.4653 11.9873 12.011 12.2433C12.5567 12.4993 13.1669 12.5849 13.762 12.489L19.836 11.5105C19.295 12.289 19.0415 13.202 18.871 14.048C18.7354 14.717 18.4961 15.3606 18.1615 15.9555C18.1145 15.9854 18.0727 16.0229 18.038 16.0665C17.0915 17.2565 15.689 18 14.132 18C11.327 18 9.00004 15.568 9.00004 12.5C9.00004 12.3674 8.94736 12.2403 8.85359 12.1465C8.75982 12.0527 8.63265 12 8.50004 12C8.36743 12 8.24025 12.0527 8.14648 12.1465C8.05272 12.2403 8.00004 12.3674 8.00004 12.5C8.00004 16.06 10.716 19 14.132 19C14.332 19 14.529 18.99 14.724 18.97C13.859 19.3216 12.9338 19.5017 12 19.5C9.61854 19.5 7.52004 18.3545 6.25654 16.61C5.37354 15.3905 5.45654 13.7235 5.90804 12.077L6.15554 11.174C6.39501 10.3004 6.36521 9.37491 6.07004 8.51854L5.78404 7.68904Z" fill="black"/>
</svg>
