<svg width="24" height="25" viewBox="0 0 24 25" fill="none" xmlns="http://www.w3.org/2000/svg">
<path fill-rule="evenodd" clip-rule="evenodd" d="M12.9586 3.228C14.7626 5.2035 19.5001 10.8115 19.5001 15.2275C19.5001 19.244 16.2641 22.5 12.2721 22.5C8.28056 22.5 5.04456 19.244 5.04456 15.2275C5.04456 10.8115 9.78206 5.2035 11.5861 3.228C12.0101 2.7635 12.2721 2.5 12.2721 2.5C12.2721 2.5 12.5341 2.7635 12.9586 3.228ZM12.2721 3.96C13.2692 5.05576 14.2051 6.20567 15.0756 7.4045C15.9571 8.624 16.8226 9.9885 17.4651 11.3615C18.1121 12.745 18.5001 14.07 18.5001 15.227C18.5001 18.6975 15.7061 21.5 12.2721 21.5C8.83856 21.5 6.04456 18.6975 6.04456 15.2275C6.04456 14.0695 6.43256 12.7445 7.07956 11.361C7.72156 9.988 8.58756 8.6235 9.46856 7.404C10.339 6.20519 11.275 5.05578 12.2721 3.96Z" fill="black"/>
<path fill-rule="evenodd" clip-rule="evenodd" d="M15.713 16.6505C15.5581 16.5331 15.3633 16.4812 15.1706 16.5061C14.9778 16.531 14.8025 16.6306 14.6825 16.7835L14.581 16.9135C13.404 18.426 11.096 18.426 9.91902 16.9135L9.81802 16.7835C9.698 16.6304 9.52263 16.5307 9.32975 16.5058C9.13687 16.481 8.94194 16.5329 8.78702 16.6505C8.71063 16.7079 8.64645 16.78 8.59823 16.8626C8.55 16.9451 8.51869 17.0364 8.50613 17.1312C8.49356 17.2259 8.49999 17.3222 8.52504 17.4145C8.55009 17.5067 8.59325 17.5931 8.65202 17.6685L8.75352 17.7985C10.519 20.067 13.981 20.067 15.7465 17.7985L15.8475 17.6685C15.9063 17.5931 15.9495 17.5068 15.9746 17.4146C15.9997 17.3223 16.0062 17.226 15.9936 17.1313C15.9811 17.0365 15.9499 16.9452 15.9017 16.8627C15.8535 16.7801 15.7894 16.708 15.713 16.6505Z" fill="black"/>
</svg>
