<svg width="24" height="25" viewBox="0 0 24 25" fill="none" xmlns="http://www.w3.org/2000/svg">
<path fill-rule="evenodd" clip-rule="evenodd" d="M15 2.8999H9.00002C6.99962 3.7003 5.79962 4.9003 5.40002 6.4999V18.4999C5.40002 19.4547 5.77931 20.3704 6.45444 21.0455C7.12957 21.7206 8.04524 22.0999 9.00002 22.0999H15C15.9548 22.0999 16.8705 21.7206 17.5456 21.0455C18.2207 20.3704 18.6 19.4547 18.6 18.4999V6.4999C18.2004 4.9003 17.0004 3.7003 15 2.8999ZM6.60002 18.4999V6.6595C6.91682 5.5795 7.76282 4.7335 9.23882 4.0999H14.76C16.236 4.7335 17.082 5.5795 17.3988 6.6595V18.4999C17.3988 19.1364 17.146 19.7469 16.6959 20.197C16.2458 20.647 15.6353 20.8999 14.9988 20.8999H8.99882C8.3623 20.8999 7.75186 20.647 7.30177 20.197C6.85168 19.7469 6.60002 19.1364 6.60002 18.4999Z" fill="black"/>
<path fill-rule="evenodd" clip-rule="evenodd" d="M8.40002 11.8999C8.40002 13.1729 8.90574 14.3938 9.80591 15.294C10.7061 16.1941 11.927 16.6999 13.2 16.6999C14.4731 16.6999 15.694 16.1941 16.5941 15.294C17.4943 14.3938 18 13.1729 18 11.8999C18 10.6268 17.4943 9.40592 16.5941 8.50574C15.694 7.60557 14.4731 7.09985 13.2 7.09985C11.927 7.09985 10.7061 7.60557 9.80591 8.50574C8.90574 9.40592 8.40002 10.6268 8.40002 11.8999ZM16.8 11.8999C16.8 12.3726 16.7069 12.8407 16.526 13.2775C16.3451 13.7143 16.0799 14.1111 15.7456 14.4454C15.4113 14.7797 15.0145 15.0449 14.5777 15.2258C14.1409 15.4067 13.6728 15.4999 13.2 15.4999C12.7273 15.4999 12.2591 15.4067 11.8224 15.2258C11.3856 15.0449 10.9887 14.7797 10.6544 14.4454C10.3201 14.1111 10.055 13.7143 9.87406 13.2775C9.69314 12.8407 9.60002 12.3726 9.60002 11.8999C9.60002 10.9451 9.97931 10.0294 10.6544 9.35427C11.3296 8.67914 12.2452 8.29985 13.2 8.29985C14.1548 8.29985 15.0705 8.67914 15.7456 9.35427C16.4207 10.0294 16.8 10.9451 16.8 11.8999Z" fill="black"/>
<path d="M14.4888 8.30591L15.672 8.50271C15.4716 9.70991 14.8644 10.8283 13.866 11.8507C12.87 12.8719 11.5092 13.6027 9.79921 14.0515L9.49561 12.8899C11.0064 12.4939 12.1728 11.8663 13.008 11.0119C13.842 10.1587 14.3304 9.25991 14.4888 8.30591Z" fill="black"/>
<path d="M16.0105 9.63432C15.9987 9.55639 16.0024 9.47692 16.0214 9.40043C16.0404 9.32394 16.0743 9.25194 16.1211 9.18854C16.1679 9.12514 16.2267 9.07157 16.2942 9.0309C16.3617 8.99024 16.4365 8.96326 16.5145 8.95152C16.5924 8.93978 16.6719 8.9435 16.7484 8.96248C16.8248 8.98145 16.8968 9.01531 16.9602 9.06211C17.0236 9.10891 17.0772 9.16774 17.1179 9.23524C17.1586 9.30274 17.1855 9.37759 17.1973 9.45552C17.3905 10.7395 17.2333 11.7907 16.6981 12.5851C16.0741 13.5079 15.1225 14.0335 14.2009 14.2759C14.0929 14.3035 13.9249 14.3419 13.6669 14.3971L12.9313 14.5543L12.7993 14.5831C12.5493 14.6358 12.3001 14.6918 12.0517 14.7511C11.7781 14.8195 11.2777 14.9731 10.5637 15.2107C10.4126 15.261 10.2478 15.2492 10.1055 15.178C9.96316 15.1068 9.85495 14.9819 9.80466 14.8309C9.75438 14.6799 9.76614 14.5151 9.83737 14.3728C9.9086 14.2304 10.0334 14.1222 10.1845 14.0719C10.9285 13.8247 11.4517 13.6639 11.7661 13.5859C11.9653 13.5379 12.2161 13.4815 12.5461 13.4095L12.6793 13.3807L13.4137 13.2247C13.6549 13.1719 13.8097 13.1371 13.8961 13.1143C14.5621 12.9403 15.2761 12.5455 15.7021 11.9143C16.0501 11.3983 16.1629 10.6459 16.0105 9.63432Z" fill="black"/>
</svg>
