<svg width="24" height="25" viewBox="0 0 24 25" fill="none" xmlns="http://www.w3.org/2000/svg">
<path d="M4 10.5V13.5C4 17.271 4 19.157 5.172 20.328C6.343 21.5 8.229 21.5 12 21.5C15.771 21.5 17.657 21.5 18.828 20.328C20 19.157 20 17.271 20 13.5V10.5C20 6.729 20 4.843 18.828 3.672C17.657 2.5 15.771 2.5 12 2.5C8.229 2.5 6.343 2.5 5.172 3.672C4.518 4.325 4.229 5.2 4.102 6.5" stroke="black" stroke-width="1.5" stroke-linecap="round"/>
<path d="M17 21.5V22.5H16V21.5M8 21.5V22.5H7V21.5" stroke="black" stroke-width="1.5" stroke-linejoin="round"/>
<path d="M20 12H15M4 12H11M17 7.5V9.5M17 14.5V16.5" stroke="black" stroke-width="1.5" stroke-linecap="round"/>
</svg>
