<svg width="24" height="25" viewBox="0 0 24 25" fill="none" xmlns="http://www.w3.org/2000/svg">
<path d="M16.5 7.4375C16.2969 7.4375 16.1211 7.36328 15.9727 7.21484C15.8242 7.06641 15.75 6.89062 15.75 6.6875C15.75 6.28906 15.8242 5.90625 15.9727 5.53906C16.1211 5.17188 16.3398 4.84766 16.6289 4.56641L17.5547 3.62891C17.8516 3.33203 18 2.97656 18 2.5625C18 2.35938 18.0742 2.18359 18.2227 2.03516C18.3711 1.88672 18.5469 1.8125 18.75 1.8125C18.9531 1.8125 19.1289 1.88672 19.2773 2.03516C19.4258 2.18359 19.5 2.35938 19.5 2.5625C19.5 2.96094 19.4258 3.34375 19.2773 3.71094C19.1289 4.07812 18.9102 4.40234 18.6211 4.68359L17.6953 5.62109C17.3984 5.91797 17.25 6.27344 17.25 6.6875C17.25 6.89062 17.1758 7.06641 17.0273 7.21484C16.8789 7.36328 16.7031 7.4375 16.5 7.4375ZM12 7.4375C11.7969 7.4375 11.6211 7.36328 11.4727 7.21484C11.3242 7.06641 11.25 6.89062 11.25 6.6875C11.25 6.28906 11.3242 5.90625 11.4727 5.53906C11.6211 5.17188 11.8398 4.84766 12.1289 4.56641L13.0547 3.62891C13.3516 3.33203 13.5 2.97656 13.5 2.5625C13.5 2.35938 13.5742 2.18359 13.7227 2.03516C13.8711 1.88672 14.0469 1.8125 14.25 1.8125C14.4531 1.8125 14.6289 1.88672 14.7773 2.03516C14.9258 2.18359 15 2.35938 15 2.5625C15 2.96094 14.9258 3.34375 14.7773 3.71094C14.6289 4.07812 14.4102 4.40234 14.1211 4.68359L13.1953 5.62109C12.8984 5.91797 12.75 6.27344 12.75 6.6875C12.75 6.89062 12.6758 7.06641 12.5273 7.21484C12.3789 7.36328 12.2031 7.4375 12 7.4375ZM21.75 9.5C22.0625 9.5 22.3555 9.55859 22.6289 9.67578C22.9023 9.79297 23.1406 9.95312 23.3438 10.1562C23.5469 10.3594 23.707 10.5977 23.8242 10.8711C23.9414 11.1445 24 11.4375 24 11.75V16.25C24 16.5625 23.9414 16.8555 23.8242 17.1289C23.707 17.4023 23.5469 17.6406 23.3438 17.8438C23.1406 18.0469 22.9023 18.207 22.6289 18.3242C22.3555 18.4414 22.0625 18.5 21.75 18.5H21.082C21.0664 18.5547 21.0547 18.6055 21.0469 18.6523C21.0391 18.6992 21.0234 18.7461 21 18.793V19.25C21 19.7656 20.9023 20.25 20.707 20.7031C20.5117 21.1562 20.2422 21.5547 19.8984 21.8984C19.5547 22.2422 19.1562 22.5117 18.7031 22.707C18.25 22.9023 17.7656 23 17.25 23H12.75C12.1406 23 11.5781 22.8633 11.0625 22.5898C10.5469 22.3164 10.1172 21.9531 9.77344 21.5H3.91406C3.39844 21.5 2.91406 21.4023 2.46094 21.207C2.00781 21.0117 1.60938 20.7461 1.26562 20.4102C0.921875 20.0742 0.652344 19.6758 0.457031 19.2148C0.261719 18.7539 0.164062 18.2656 0.164062 17.75V17H3.16406C3.16406 16.3828 3.28125 15.8008 3.51562 15.2539C3.75 14.707 4.07422 14.2305 4.48828 13.8242C4.90234 13.418 5.37891 13.0938 5.91797 12.8516C6.45703 12.6094 7.03906 12.4922 7.66406 12.5C7.89844 12.5 8.125 12.5195 8.34375 12.5586C8.5625 12.5977 8.78125 12.6523 9 12.7227V8H21V9.5H21.75ZM7.66406 14C7.25 14 6.86328 14.0781 6.50391 14.2344C6.14453 14.3906 5.82422 14.6055 5.54297 14.8789C5.26172 15.1523 5.04688 15.4688 4.89844 15.8281C4.75 16.1875 4.67188 16.5781 4.66406 17H9V14.3281C8.79688 14.2266 8.58594 14.1484 8.36719 14.0938C8.14844 14.0391 7.91406 14.0078 7.66406 14ZM3.91406 20H9.08203C9.02734 19.7734 9 19.5234 9 19.25V18.5H1.79297C1.87109 18.7188 1.98047 18.918 2.12109 19.0977C2.26172 19.2773 2.42188 19.4375 2.60156 19.5781C2.78125 19.7188 2.98438 19.8203 3.21094 19.8828C3.4375 19.9453 3.67188 19.9844 3.91406 20ZM9.33984 20.7852V20.7969L9.35156 20.8203V20.8086L9.33984 20.7852ZM19.5 19.25V9.5H10.5V19.25C10.5 19.5625 10.5586 19.8555 10.6758 20.1289C10.793 20.4023 10.9531 20.6406 11.1562 20.8438C11.3594 21.0469 11.5977 21.207 11.8711 21.3242C12.1445 21.4414 12.4375 21.5 12.75 21.5H17.25C17.5625 21.5 17.8555 21.4414 18.1289 21.3242C18.4023 21.207 18.6406 21.0469 18.8438 20.8438C19.0469 20.6406 19.207 20.4023 19.3242 20.1289C19.4414 19.8555 19.5 19.5625 19.5 19.25ZM22.5 16.25V11.75C22.5 11.5469 22.4258 11.3711 22.2773 11.2227C22.1289 11.0742 21.9531 11 21.75 11H21V17H21.75C21.9531 17 22.1289 16.9258 22.2773 16.7773C22.4258 16.6289 22.5 16.4531 22.5 16.25Z" fill="black"/>
</svg>
