<svg width="28" height="34" viewBox="0 0 28 34" fill="none" xmlns="http://www.w3.org/2000/svg">
<path d="M23.3179 17.7185C23.3509 15.155 24.7248 12.7293 26.9044 11.3866C25.5294 9.41889 23.2263 8.17129 20.8302 8.09616C18.2745 7.82737 15.7969 9.62853 14.4946 9.62853C13.1671 9.62853 11.1619 8.12285 9.00275 8.16737C6.18833 8.25848 3.5646 9.86184 2.19533 12.3274C-0.748065 17.4337 1.44744 24.9383 4.26696 29.0659C5.67763 31.087 7.32629 33.3447 9.48354 33.2647C11.5945 33.1769 12.3829 31.9158 14.9311 31.9158C17.4556 31.9158 18.1953 33.2647 20.3963 33.2138C22.6615 33.1769 24.0887 31.1836 25.4499 29.1433C26.4634 27.7032 27.2433 26.1115 27.7608 24.4273C25.0987 23.2991 23.321 20.6147 23.3179 17.7185Z" fill="white"/>
<path d="M19.1605 5.38167C20.3956 3.896 21.0041 1.98643 20.8568 0.0584717C18.9698 0.257058 17.2268 1.16071 15.9751 2.58938C14.751 3.98526 14.114 5.86123 14.2344 7.7155C16.122 7.73497 17.9777 6.85581 19.1605 5.38167Z" fill="white"/>
</svg>
