<svg width="48" height="52" viewBox="0 0 48 52" fill="none" xmlns="http://www.w3.org/2000/svg">
<path d="M45.3333 18C46.0406 18 46.7189 18.281 47.219 18.7811C47.7191 19.2812 48 19.9594 48 20.6667V23.3334C48 28.9913 45.7524 34.4175 41.7516 38.4183C37.7508 42.4191 32.3246 44.6667 26.6667 44.6667H17.104L19.2187 46.7814C19.7044 47.2843 19.9732 47.9579 19.9671 48.6571C19.9611 49.3563 19.6806 50.0251 19.1862 50.5195C18.6918 51.014 18.0229 51.2944 17.3237 51.3005C16.6245 51.3066 15.9509 51.0378 15.448 50.552L8.792 43.896C8.37879 43.489 8.11002 42.958 8.02667 42.384L8 41.976C8.00436 41.3523 8.2281 40.75 8.632 40.2747L8.78133 40.1147L15.448 33.448C15.9509 32.9623 16.6245 32.6935 17.3237 32.6996C18.0229 32.7056 18.6918 32.9861 19.1862 33.4805C19.6806 33.9749 19.9611 34.6438 19.9671 35.343C19.9732 36.0421 19.7044 36.7158 19.2187 37.2187L17.104 39.3334H26.6667C30.9101 39.3334 34.9798 37.6476 37.9804 34.6471C40.981 31.6465 42.6667 27.5768 42.6667 23.3334V20.6667C42.6667 19.9594 42.9476 19.2812 43.4477 18.7811C43.9478 18.281 44.6261 18 45.3333 18ZM32.552 1.44803L39.2187 8.11469C39.7186 8.61477 39.9994 9.29292 39.9994 10C39.9994 10.7071 39.7186 11.3853 39.2187 11.8854L32.552 18.552C32.306 18.8067 32.0118 19.0099 31.6864 19.1496C31.3611 19.2894 31.0111 19.363 30.6571 19.366C30.303 19.3691 29.9518 19.3016 29.6241 19.1676C29.2964 19.0335 28.9987 18.8355 28.7483 18.5851C28.4979 18.3347 28.2999 18.037 28.1658 17.7092C28.0317 17.3815 27.9643 17.0304 27.9673 16.6763C27.9704 16.3222 28.044 15.9723 28.1837 15.6469C28.3235 15.3216 28.5266 15.0274 28.7813 14.7814L30.896 12.6667H21.3333C17.0899 12.6667 13.0202 14.3524 10.0196 17.353C7.01904 20.3536 5.33333 24.4232 5.33333 28.6667V31.3334C5.33333 32.0406 5.05238 32.7189 4.55228 33.219C4.05219 33.7191 3.37391 34 2.66667 34C1.95942 34 1.28115 33.7191 0.781048 33.219C0.280951 32.7189 0 32.0406 0 31.3334V28.6667C0 23.0087 2.24761 17.5825 6.24839 13.5817C10.2492 9.58097 15.6754 7.33336 21.3333 7.33336H30.896L28.7813 5.21869C28.2956 4.71575 28.0268 4.04215 28.0329 3.34296C28.0389 2.64377 28.3194 1.97493 28.8138 1.48051C29.3082 0.98609 29.9771 0.705639 30.6763 0.699564C31.3755 0.693488 32.0491 0.962273 32.552 1.44803Z" fill="white"/>
</svg>
