<svg width="55" height="42" viewBox="0 0 55 42" fill="none" xmlns="http://www.w3.org/2000/svg">
<path d="M0.666656 0.389893C3.82116 6.48739 3.91791 12.1821 7.36491 23.7899C11.5387 35.8071 26.9467 36.6171 28.0874 36.6396C29.1224 38.2731 31.4917 40.4736 36.9209 41.6121L37.5239 38.7501C32.8394 37.7691 31.1249 35.9624 30.5354 34.9701L30.5242 34.9836C30.7199 33.8946 33.9509 22.8854 27.5474 13.9416C16.8262 2.06164 0.666656 0.389893 0.666656 0.389893ZM54.6667 2.27989C45.8962 3.65464 45.0074 0.209892 28.8524 9.23914C31.4852 12.3148 33.3849 15.9484 34.4081 19.8656C35.4312 23.7828 35.5511 27.8813 34.7587 31.8516C43.1354 28.5081 46.3822 22.9056 47.3722 17.3031C47.3722 17.3031 50.2297 6.69214 54.6667 2.27989ZM28.8524 9.23914L28.8479 9.23464V9.24364L28.8524 9.23914ZM6.61341 5.74489C6.61341 5.74489 18.8129 8.95339 25.8352 31.7166C19.2089 29.7164 16.3784 23.1756 15.4177 20.0886H15.4312C13.6772 14.6724 10.6553 9.75428 6.61341 5.74489Z" fill="white"/>
</svg>
